<?xml version="1.0" encoding="utf-8"?>
<!-- Generator: Adobe Illustrator 24.3.0, SVG Export Plug-In . SVG Version: 6.00 Build 0)  -->
<svg version="1.1"
	 id="Layer_1" xmlns:cc="http://creativecommons.org/ns#" xmlns:dc="http://purl.org/dc/elements/1.1/" xmlns:inkscape="http://www.inkscape.org/namespaces/inkscape" xmlns:rdf="http://www.w3.org/1999/02/22-rdf-syntax-ns#" xmlns:sodipodi="http://sodipodi.sourceforge.net/DTD/sodipodi-0.dtd" xmlns:svg="http://www.w3.org/2000/svg"
	 xmlns="http://www.w3.org/2000/svg" xmlns:xlink="http://www.w3.org/1999/xlink" x="0px" y="0px" viewBox="0 0 329.2 117"
	 style="enable-background:new 0 0 329.2 117;" xml:space="preserve">
<style type="text/css">
	.st0{enable-background:new    ;}
	.st1{fill:#FFFFFF;}
</style>
<g id="Wa-aby">
	<g class="st0">
		<path class="st1" d="M251.7,38.2h11.9l10.1,30.1l9.9-30.1h11.6l-15,40.8l-2.7,7.4c-1,2.5-1.9,4.4-2.8,5.7
			c-0.9,1.3-1.9,2.4-3.1,3.2c-1.2,0.8-2.6,1.4-4.3,1.9c-1.7,0.5-3.6,0.7-5.7,0.7c-2.2,0-4.3-0.2-6.3-0.7l-1-8.8
			c1.8,0.3,3.3,0.5,4.8,0.5c2.6,0,4.5-0.8,5.8-2.3s2.2-3.5,2.9-5.8L251.7,38.2z"/>
	</g>
	<g class="st0">
		<path class="st1" d="M212.4,80.6V22.1h11.2v21.1c3.5-3.9,7.6-5.9,12.3-5.9c5.2,0,9.4,1.9,12.8,5.6c3.4,3.7,5.1,9.1,5.1,16.1
			c0,7.2-1.7,12.8-5.2,16.7c-3.4,3.9-7.6,5.9-12.6,5.9c-2.4,0-4.8-0.6-7.2-1.8s-4.4-3-6.1-5.4v6.2H212.4z M223.5,58.5
			c0,4.4,0.7,7.6,2.1,9.7c1.9,3,4.5,4.5,7.7,4.5c2.5,0,4.6-1.1,6.3-3.2c1.7-2.1,2.6-5.4,2.6-10c0-4.8-0.9-8.3-2.6-10.5
			c-1.8-2.1-4-3.2-6.7-3.2c-2.7,0-4.9,1-6.7,3.1S223.5,54.2,223.5,58.5z"/>
	</g>
	<g class="st0">
		<path class="st1" d="M179.9,51.1l-10.2-1.8c1.1-4.1,3.1-7.1,5.9-9.1c2.8-2,6.9-3,12.5-3c5,0,8.7,0.6,11.2,1.8
			c2.4,1.2,4.2,2.7,5.2,4.5c1,1.8,1.5,5.2,1.5,10l-0.1,13.1c0,3.7,0.2,6.5,0.5,8.2c0.4,1.8,1,3.7,2,5.7h-11.1
			c-0.3-0.7-0.7-1.8-1.1-3.3c-0.2-0.7-0.3-1.1-0.4-1.3c-1.9,1.9-4,3.3-6.1,4.2s-4.5,1.4-7,1.4c-4.4,0-7.8-1.2-10.3-3.6
			c-2.5-2.4-3.8-5.4-3.8-9c0-2.4,0.6-4.5,1.7-6.4c1.1-1.9,2.7-3.3,4.8-4.3c2.1-1,5-1.9,8.9-2.6c5.2-1,8.9-1.9,10.9-2.8v-1.1
			c0-2.2-0.5-3.7-1.6-4.6c-1.1-0.9-3.1-1.4-6-1.4c-2,0-3.6,0.4-4.7,1.2C181.5,47.8,180.5,49.2,179.9,51.1z M194.9,60.2
			c-1.4,0.5-3.7,1.1-6.8,1.7s-5.2,1.3-6.1,2c-1.5,1-2.2,2.4-2.2,4c0,1.6,0.6,2.9,1.8,4.1c1.2,1.1,2.7,1.7,4.5,1.7c2,0,4-0.7,5.8-2
			c1.4-1,2.2-2.2,2.7-3.7c0.3-1,0.4-2.8,0.4-5.5V60.2z"/>
	</g>
	<g class="st0">
		<path class="st1" d="M103,51.1l-10.2-1.8c1.1-4.1,3.1-7.1,5.9-9.1c2.8-2,6.9-3,12.5-3c5,0,8.7,0.6,11.2,1.8
			c2.4,1.2,4.2,2.7,5.2,4.5c1,1.8,1.5,5.2,1.5,10l-0.1,13.1c0,3.7,0.2,6.5,0.5,8.2c0.4,1.8,1,3.7,2,5.7h-11.1
			c-0.3-0.7-0.7-1.8-1.1-3.3c-0.2-0.7-0.3-1.1-0.4-1.3c-1.9,1.9-4,3.3-6.1,4.2c-2.2,0.9-4.5,1.4-7,1.4c-4.4,0-7.8-1.2-10.3-3.6
			c-2.5-2.4-3.8-5.4-3.8-9c0-2.4,0.6-4.5,1.7-6.4c1.1-1.9,2.7-3.3,4.8-4.3c2.1-1,5-1.9,8.9-2.6c5.2-1,8.9-1.9,10.9-2.8v-1.1
			c0-2.2-0.5-3.7-1.6-4.6c-1.1-0.9-3.1-1.4-6-1.4c-2,0-3.6,0.4-4.7,1.2C104.6,47.8,103.6,49.2,103,51.1z M118,60.2
			c-1.4,0.5-3.7,1.1-6.8,1.7s-5.2,1.3-6.1,2c-1.5,1-2.2,2.4-2.2,4c0,1.6,0.6,2.9,1.8,4.1s2.7,1.7,4.5,1.7c2,0,4-0.7,5.8-2
			c1.4-1,2.2-2.2,2.7-3.7c0.3-1,0.4-2.8,0.4-5.5V60.2z"/>
	</g>
	<g class="st0">
		<path class="st1" d="M44.8,80.6L31.4,38.2h10.9L50.3,66l7.3-27.8h10.8L75.4,66l8.1-27.8h11.1L81,80.6H70.2l-7.3-27.3l-7.2,27.3
			H44.8z"/>
	</g>
</g>
<g id="Layer_3">
	<path id="path14" class="st1" d="M123.3,32.5l0.4,0.7l0.2,0.7l0.4,1.3l0.7,0.5h1v0.7l0.6,0.1l0.4,0.1c0.5-0.2,1.1-0.4,1.6-0.6
		l1-0.6l0.5-0.3l0.2-0.2h1.8l0.4,0.1v0.7l-0.2,0.4l-0.2,0.2l-0.1,0.8c-0.3,0.7-1,1.7-1.3,2.3l-0.2,0.8l-0.1,2.5
		c0.1,0.5,0.4,1.9,0.6,2.4l0.7,2.1l0.6,1.2l-0.1,2.2l0.2,1.6l0.3,1.4c0,0,0.6,1.9,0.6,2s1.2,2.8,1.2,2.8l0.3,1.4l-0.1,1.3l0.6,0.2
		l-0.5,1.2l0.3,0.7l1.2-0.2l0.6,0.7v0.5l0.2,0.2l-0.2,3.7l0.7,3.4l1,2.8h0.2v1.2l1.1,1.6l1.2,2.8c0.2,1.4,0.6,4.2,0.7,5.6
		c0,0,0.3,3.6,0.3,3.7l-0.4,0.8l-0.6,0.4l-1.4,0.2h-2.5l-3.7,0.4l-1.2,0.3l-0.6,0.3l-3.6,0.1l-1.3,0.2l-0.8,0.6l-0.2,0.6h0.9
		l0.8,0.2c0.7,0,3.9-0.1,4.7-0.1l4.2-0.5h3.1c1.8,0,5.4,0,7.2,0l0.6-0.4l-0.3-2c-0.2-1.2-0.6-3.8-0.7-5c-0.2-1.3-0.3-2.7-0.3-4.1
		l1.3,1.5l0.5,0.9l0.1,1.1l0.5,0.8l1.7,0.2l0.5,0.5l1-0.1l1,0.6V89l-0.4,1.9c-0.3,0.5-1,1.6-1.3,2.1l-2.1,0.4
		c-1.1,0.1-2.2,0.2-3.2,0.1l-2.3,0.1h-3l-0.8,0.4c-1.1,0.1-3.2,0.1-4.3,0.1l-1.4,0.6l-0.7,0.5l0.1,0.4l0.4,0.4l1.2,0.2l2.4-0.3
		c2.6-0.3,15.8-0.5,18.7-0.6l0.5-0.4v-0.8l-0.2-0.7l0.7-6.6h1l0.6,0.3c0.2,0.1,0.3,0.3,0.4,0.5c0,0.1,0.6,0.8,0.6,0.8l0.6,0.1
		l0.5,0.5l0.8,0.6l1.5,0.8l2.5,0.5l3.1,0.3h3.9c4.1-0.2,9.7-0.4,13.8-0.4l2.7,0.1l3.7-0.2c2,0,5.9-0.3,7.9-0.6
		c1.7-0.2,4.2-0.3,5.9-0.6l1.3-0.7l-0.3-0.7l-0.6-0.2l-3.3-0.8l-2.6-0.6l-2.8-0.3c-1.7,0-5-0.2-6.7-0.3l-3.1-0.3c-2,0.1-6,0.1-8,0.1
		c-1.4,0.1-4.4,0.3-5.8,0.5l-3.1-0.1l-2-1.2l-1.5-1.3l-1.2-1.8l-0.5-1.9l-0.4-3.7c0.4-1.1,1-3.2,1.3-4.3l0.1-2.5l0.5-2.7
		c0,0,0.1-2.6,0.1-2.8s-0.7-3-0.7-3l-1.2-3.1l-1.6-4.2l-1.1-3.4l-2.3-3.6l-2.6-2.8l-2.4-2.2l-2.5-1.5l-2.2-0.7l-1.3-1l-1.3-1.4
		l-1.3-1.2l-1.6-1l-3.2-1.8l-0.8-1.1l-0.4-1.9l-0.4-2l-0.5-1.3v-1.2l0.5-1.2l-0.4-1.7l-0.4-0.8l0.4-1.4l0.1-1.5l-0.4-1.1l-0.3-0.5
		l-0.2-1.4l-0.6-1.1l-0.8-0.4l-0.5,0.3l-0.8,0.1l-0.8,0.8c-0.2,0.4-0.7,1.1-1,1.5L135,18l0.1,1.4c-0.4-0.7-1.2-2.1-1.7-2.8l-0.5-1.1
		l-0.4-1.2l-0.7-0.6h-0.7l-0.5,0.7v0.8l-0.1,1.3l0.1,1.6l0.5,1.3c0,0.6,0,2.5-0.1,3.1l-0.4,0.5l-1.3,0.8l-0.8,1l-0.9,0.7l-0.5,0.6
		l-0.2,0.9l-0.6,1l-0.5,0.8c-0.9,0.8-1.7,1.7-2.5,2.7L123.3,32.5z M150.7,67.1l0.4,6.5l0.6,3.7l0.9,3.2v4.8l-0.3-4.7l-0.6-2
		l-0.9-4.3L150.7,67.1L150.7,67.1z M137.1,58.3l0.4-1.8c0,0.2,0.2,1.4,0.2,1.6L137.1,58.3z"/>
</g>
<g id="Designs" class="st0">
	<path class="st1" d="M286.1,31.6l2.6-0.4c0.1,0.5,0.3,0.9,0.7,1.1c0.3,0.3,0.8,0.4,1.4,0.4c0.7,0,1.2-0.1,1.5-0.4
		c0.2-0.2,0.3-0.4,0.3-0.7c0-0.2-0.1-0.4-0.2-0.5c-0.1-0.1-0.4-0.2-0.9-0.3c-2.1-0.5-3.4-0.9-3.9-1.2c-0.8-0.5-1.1-1.2-1.1-2.2
		c0-0.8,0.3-1.5,1-2.1c0.7-0.6,1.7-0.9,3.1-0.9c1.3,0,2.3,0.2,3,0.6c0.6,0.4,1.1,1.1,1.3,1.9l-2.4,0.4c-0.1-0.4-0.3-0.7-0.6-0.9
		c-0.3-0.2-0.7-0.3-1.2-0.3c-0.7,0-1.2,0.1-1.4,0.3c-0.2,0.1-0.3,0.3-0.3,0.5c0,0.2,0.1,0.3,0.3,0.5c0.2,0.2,1,0.4,2.4,0.7
		c1.4,0.3,2.3,0.7,2.9,1.1c0.5,0.5,0.8,1.1,0.8,1.9c0,0.9-0.4,1.6-1.1,2.3c-0.7,0.6-1.8,1-3.3,1c-1.3,0-2.4-0.3-3.1-0.8
		S286.3,32.5,286.1,31.6z"/>
	<path class="st1" d="M284.4,34.4h-2.6v-4.9c0-1-0.1-1.7-0.2-2s-0.3-0.5-0.5-0.7s-0.5-0.3-0.9-0.3c-0.4,0-0.8,0.1-1.2,0.4
		c-0.4,0.2-0.6,0.6-0.7,1c-0.1,0.4-0.2,1.1-0.2,2.2v4.4h-2.6v-9.7h2.4v1.4c0.8-1.1,1.9-1.6,3.2-1.6c0.6,0,1.1,0.1,1.5,0.3
		c0.5,0.2,0.8,0.5,1.1,0.8s0.4,0.7,0.5,1.1c0.1,0.4,0.1,1,0.1,1.7V34.4z"/>
	<path class="st1" d="M265.4,35l2.9,0.4c0,0.3,0.2,0.6,0.3,0.7c0.2,0.2,0.6,0.3,1.1,0.3c0.7,0,1.2-0.1,1.5-0.3
		c0.2-0.1,0.4-0.3,0.5-0.6c0.1-0.2,0.1-0.6,0.1-1.2v-1.4c-0.8,1-1.7,1.6-2.9,1.6c-1.3,0-2.3-0.5-3.1-1.6c-0.6-0.9-0.9-1.9-0.9-3.2
		c0-1.6,0.4-2.9,1.2-3.7c0.8-0.9,1.8-1.3,2.9-1.3c1.2,0,2.2,0.5,3,1.6v-1.4h2.4v8.7c0,1.1-0.1,2-0.3,2.6c-0.2,0.6-0.5,1-0.8,1.3
		c-0.3,0.3-0.8,0.6-1.4,0.8c-0.6,0.2-1.3,0.3-2.2,0.3c-1.6,0-2.8-0.3-3.5-0.8c-0.7-0.6-1-1.3-1-2.1C265.4,35.2,265.4,35.1,265.4,35z
		 M267.7,29.3c0,1,0.2,1.8,0.6,2.3c0.4,0.5,0.9,0.7,1.5,0.7c0.6,0,1.2-0.2,1.6-0.7c0.4-0.5,0.6-1.2,0.6-2.2c0-1-0.2-1.7-0.6-2.2
		s-0.9-0.7-1.6-0.7c-0.6,0-1.1,0.2-1.5,0.7C267.9,27.6,267.7,28.4,267.7,29.3z"/>
	<path class="st1" d="M261.6,23.4V21h2.6v2.4H261.6z M261.6,34.4v-9.7h2.6v9.7H261.6z"/>
	<path class="st1" d="M251.4,31.6l2.6-0.4c0.1,0.5,0.3,0.9,0.7,1.1c0.3,0.3,0.8,0.4,1.4,0.4c0.7,0,1.2-0.1,1.5-0.4
		c0.2-0.2,0.3-0.4,0.3-0.7c0-0.2-0.1-0.4-0.2-0.5c-0.1-0.1-0.4-0.2-0.9-0.3c-2.1-0.5-3.4-0.9-3.9-1.2c-0.8-0.5-1.1-1.2-1.1-2.2
		c0-0.8,0.3-1.5,1-2.1c0.7-0.6,1.7-0.9,3.1-0.9c1.3,0,2.3,0.2,3,0.6c0.6,0.4,1.1,1.1,1.3,1.9l-2.4,0.4c-0.1-0.4-0.3-0.7-0.6-0.9
		c-0.3-0.2-0.7-0.3-1.2-0.3c-0.7,0-1.2,0.1-1.4,0.3c-0.2,0.1-0.3,0.3-0.3,0.5c0,0.2,0.1,0.3,0.3,0.5c0.2,0.2,1,0.4,2.4,0.7
		c1.4,0.3,2.3,0.7,2.9,1.1c0.5,0.5,0.8,1.1,0.8,1.9c0,0.9-0.4,1.6-1.1,2.3c-0.7,0.6-1.8,1-3.3,1c-1.3,0-2.4-0.3-3.1-0.8
		S251.6,32.5,251.4,31.6z"/>
	<path class="st1" d="M248.5,31.3l2.5,0.4c-0.3,0.9-0.8,1.6-1.6,2.1c-0.7,0.5-1.6,0.7-2.7,0.7c-1.7,0-2.9-0.5-3.7-1.6
		c-0.6-0.9-1-2-1-3.3c0-1.6,0.4-2.9,1.3-3.8c0.8-0.9,1.9-1.4,3.2-1.4c1.4,0,2.6,0.5,3.4,1.4c0.8,1,1.2,2.4,1.2,4.4h-6.4
		c0,0.8,0.2,1.3,0.6,1.8c0.4,0.4,0.9,0.6,1.5,0.6c0.4,0,0.7-0.1,1-0.3S248.3,31.8,248.5,31.3z M248.6,28.7c0-0.7-0.2-1.3-0.6-1.7
		s-0.8-0.6-1.3-0.6c-0.6,0-1,0.2-1.4,0.6c-0.4,0.4-0.5,1-0.5,1.7H248.6z"/>
	<path class="st1" d="M241.4,34.4H239v-1.4c-0.4,0.6-0.9,1-1.4,1.2c-0.5,0.3-1.1,0.4-1.6,0.4c-1.1,0-2.1-0.4-2.9-1.3
		s-1.2-2.1-1.2-3.7c0-1.6,0.4-2.9,1.2-3.7c0.8-0.9,1.7-1.3,2.9-1.3c1.1,0,2,0.4,2.8,1.3V21h2.6V34.4z M234.5,29.3
		c0,1,0.1,1.8,0.4,2.2c0.4,0.7,1,1,1.7,1c0.6,0,1.1-0.3,1.5-0.8s0.6-1.2,0.6-2.2c0-1.1-0.2-1.9-0.6-2.4c-0.4-0.5-0.9-0.7-1.5-0.7
		c-0.6,0-1.1,0.2-1.5,0.7C234.7,27.6,234.5,28.4,234.5,29.3z"/>
</g>
</svg>
